# xmcd
#
# Track frame offsets: 
#        150
#        19515
#        43091
#        62436
#        81422
#        104942
#        126087
#        145544
#        164828
#        183878
#        203918
#
# Disc length: 2815 seconds
#
# Revision: 0
# Processed by: cddbd v1.5.2PL0 Copyright (c) Steve Scherf et al.
# Submitted via: ExactAudioCopy v1.0b3
#
DISCID=9a0afd0b
DTITLE=Ford - กระต่ายในจันทร์
DYEAR=2000
DGENRE=Pop
TTITLE0=คิดถึง
TTITLE1=กระต่ายในจันทร์
TTITLE2=เที่ยงคืนกลางสายฝน
TTITLE3=เจ็บแค่ไหนก็ยอม
TTITLE4=ขุมทองของหัวใจ
TTITLE5=คือเธอ
TTITLE6=Tonight..คืนแห่งความรัก
TTITLE7=คือความผูกพัน
TTITLE8=เพื่อเธอคนเดียว
TTITLE9=เรายังเหมือนเดิม
TTITLE10=คือเธอ (FORD FREE VERSION)
EXTD=
EXTT0=
EXTT1=
EXTT2=
EXTT3=
EXTT4=
EXTT5=
EXTT6=
EXTT7=
EXTT8=
EXTT9=
EXTT10=
PLAYORDER=
